<svg xmlns="http://www.w3.org/2000/svg" version="1.1" xmlns:xlink="http://www.w3.org/1999/xlink" width="841" height="841"><svg width="841" height="841" viewBox="0 0 841 841" fill="none" xmlns="http://www.w3.org/2000/svg">
<path d="M319 725H348V754H319V725Z" fill="#003366"></path>
<path d="M348 754H377V783H348V754Z" fill="#003366"></path>
<path d="M377 783H406V812H377V783Z" fill="#003366"></path>
<path d="M319 696H348V725H319V696Z" fill="#003366"></path>
<path d="M319 667H348V696H319V667Z" fill="#003366"></path>
<path d="M319 638H348V667H319V638Z" fill="#003366"></path>
<path d="M290 638H319V667H290V638Z" fill="#0077FF"></path>
<path d="M261 638H290V667H261V638Z" fill="#0077FF"></path>
<path d="M232 638H261V667H232V638Z" fill="#0077FF"></path>
<path d="M203 638H232V667H203V638Z" fill="#0077FF"></path>
<path d="M638 607H667V636H638V607Z" fill="#0077FF"></path>
<path d="M667 636H696V665H667V636Z" fill="#0077FF"></path>
<path d="M667 580H696V609H667V580Z" fill="#0077FF"></path>
<path d="M609 578H638V607H609V578Z" fill="#0077FF"></path>
<path d="M609 520H638V549H609V520Z" fill="#0077FF"></path>
<path d="M638 462H667V491H638V462Z" fill="#0077FF"></path>
<path d="M638 491H667V520H638V491Z" fill="#0077FF"></path>
<path d="M638 433H667V462H638V433Z" fill="#0077FF"></path>
<path d="M580 462H609V491H580V462Z" fill="#0077FF"></path>
<path d="M580 491H609V520H580V491Z" fill="#0077FF"></path>
<path d="M580 433H609V462H580V433Z" fill="#0077FF"></path>
<path d="M551 404H580V433H551V404Z" fill="#0077FF"></path>
<path d="M638 404H667V433H638V404Z" fill="#0077FF"></path>
<path d="M667 375H696V404H667V375Z" fill="#0077FF"></path>
<path d="M580 549H609V578H580V549Z" fill="#0077FF"></path>
<path d="M551 549H580V578H551V549Z" fill="#0077FF"></path>
<path d="M522 549H551V578H522V549Z" fill="#0077FF"></path>
<path d="M232 348H261V377H232V348Z" fill="#0077FF"></path>
<path d="M261 348H290V377H261V348Z" fill="#0077FF"></path>
<path d="M319 319H348V348H319V319Z" fill="#0077FF"></path>
<path d="M348 319H377V348H348V319Z" fill="#0077FF"></path>
<path d="M290 377H319V406H290V377Z" fill="#0077FF"></path>
<path d="M348 377H377V406H348V377Z" fill="#0077FF"></path>
<path d="M203 348H232V377H203V348Z" fill="#0077FF"></path>
<path d="M174 348H203V377H174V348Z" fill="#0077FF"></path>
<path d="M319 406H348V435H319V406Z" fill="#0077FF"></path>
<path d="M348 406H377V435H348V406Z" fill="#0077FF"></path>
<path d="M290 406H319V435H290V406Z" fill="#0077FF"></path>
<path d="M261 406H290V435H261V406Z" fill="#0077FF"></path>
<path d="M145 348H174V377H145V348Z" fill="#0077FF"></path>
<path d="M493 696H522V725H493V696Z" fill="#0077FF"></path>
<path d="M464 696H493V725H464V696Z" fill="#0077FF"></path>
<path d="M435 696H464V725H435V696Z" fill="#0077FF"></path>
<path d="M406 696H435V725H406V696Z" fill="#0077FF"></path>
<path d="M203 609H232V638H203V609Z" fill="#0077FF"></path>
<path d="M174 667H203V696H174V667Z" fill="#0077FF"></path>
<path d="M290 754H319V783H290V754Z" fill="#0077FF"></path>
<path d="M377 754H406V783H377V754Z" fill="#0077FF"></path>
<path d="M377 725H406V754H377V725Z" fill="#0077FF"></path>
<path d="M377 696H406V725H377V696Z" fill="#0077FF"></path>
<path d="M406 754H435V783H406V754Z" fill="#0077FF"></path>
<path d="M406 783H435V812H406V783Z" fill="#0077FF"></path>
<path d="M145 667H174V696H145V667Z" fill="#0077FF"></path>
<path d="M116 667H145V696H116V667Z" fill="#A3D5FF"></path>
<path d="M58 638H87V667H58V638Z" fill="#A3D5FF"></path>
<path d="M87 638H116V667H87V638Z" fill="#A3D5FF"></path>
<path d="M29 580H58V609H29V580Z" fill="#A3D5FF"></path>
<path d="M58 580H87V609H58V580Z" fill="#A3D5FF"></path>
<path d="M58 522H87V551H58V522Z" fill="#A3D5FF"></path>
<path d="M29 493H58V522H29V493Z" fill="#A3D5FF"></path>
<path d="M87 406H116V435H87V406Z" fill="#A3D5FF"></path>
<path d="M116 435H145V464H116V435Z" fill="#A3D5FF"></path>
<path d="M116 464H145V493H116V464Z" fill="#A3D5FF"></path>
<path d="M493 116H522V145H493V116Z" fill="#A3D5FF"></path>
<path d="M551 145H580V174H551V145Z" fill="#A3D5FF"></path>
<path d="M580 145H609V174H580V145Z" fill="#A3D5FF"></path>
<path d="M0 464H29V493H0V464Z" fill="#A3D5FF"></path>
<path d="M0 435H29V464H0V435Z" fill="#A3D5FF"></path>
<path d="M0 406H29V435H0V406Z" fill="#A3D5FF"></path>
<path d="M0 377H29V406H0V377Z" fill="#A3D5FF"></path>
<path d="M87 203H116V232H87V203Z" fill="#A3D5FF"></path>
<path d="M87 174H116V203H87V174Z" fill="#A3D5FF"></path>
<path d="M0 203H29V232H0V203Z" fill="#A3D5FF"></path>
<path d="M29 232H58V261H29V232Z" fill="#A3D5FF"></path>
<path d="M58 261H87V290H58V261Z" fill="#A3D5FF"></path>
<path d="M87 145H116V174H87V145Z" fill="#A3D5FF"></path>
<path d="M377 116H406V145H377V116Z" fill="#A3D5FF"></path>
<path d="M377 87H406V116H377V87Z" fill="#A3D5FF"></path>
<path d="M667 694H696V723H667V694Z" fill="#A3D5FF"></path>
<path d="M667 665H696V694H667V665Z" fill="#A3D5FF"></path>
<path d="M551 725V754H522V725H551Z" fill="#A3D5FF"></path>
<path d="M580 725V754H551V725H580Z" fill="#A3D5FF"></path>
<path d="M609 725V754H580V725H609Z" fill="#A3D5FF"></path>
<path d="M580 638V667H551V638H580Z" fill="#A3D5FF"></path>
<path d="M551 667V696H522V667H551Z" fill="#A3D5FF"></path>
<path d="M319 145H348V174H319V145Z" fill="#A3D5FF"></path>
<path d="M319 145H348V174H319V145Z" fill="#A3D5FF"></path>
<path d="M261 145H290V174H261V145Z" fill="#A3D5FF"></path>
<path d="M290 174H319V203H290V174Z" fill="#A3D5FF"></path>
<path d="M203 87H232V116H203V87Z" fill="#A3D5FF"></path>
<path d="M174 58H203V87H174V58Z" fill="#A3D5FF"></path>
<path d="M232 116H261V145H232V116Z" fill="#A3D5FF"></path>
<path d="M174 203H145V232H174V203Z" fill="#A3D5FF"></path>
<path d="M203 174H174V203H203V174Z" fill="#A3D5FF"></path>
<path d="M145 232H116V261H145V232Z" fill="#A3D5FF"></path>
<path d="M174 261H145V290H174V261Z" fill="#A3D5FF"></path>
<path d="M783 288H754V317H783V288Z" fill="#A3D5FF"></path>
<path d="M783 259H754V288H783V259Z" fill="#A3D5FF"></path>
<path d="M783 230H754V259H783V230Z" fill="#A3D5FF"></path>
<path d="M783 464H754V493H783V464Z" fill="#A3D5FF"></path>
<path d="M783 435H754V464H783V435Z" fill="#A3D5FF"></path>
<path d="M783 406H754V435H783V406Z" fill="#A3D5FF"></path>
<path d="M696 203H667V232H696V203Z" fill="#A3D5FF"></path>
<path d="M667 232H638V261H667V232Z" fill="#A3D5FF"></path>
<path d="M696 174H667V203H696V174Z" fill="#A3D5FF"></path>
<path d="M725 145H696V174H725V145Z" fill="#A3D5FF"></path>
<path d="M696 317H667V346H696V317Z" fill="#A3D5FF"></path>
<path d="M696 288H667V317H696V288Z" fill="#A3D5FF"></path>
<path d="M754 406V377H725V406H754Z" fill="#A3D5FF"></path>
<path d="M783 406V377H754V406H783Z" fill="#A3D5FF"></path>
<path d="M812 406V377H783V406H812Z" fill="#A3D5FF"></path>
<path d="M841 377V348H812V377H841Z" fill="#A3D5FF"></path>
<path d="M812 522V493H783V522H812Z" fill="#A3D5FF"></path>
<path d="M812 580V551H783V580H812Z" fill="#A3D5FF"></path>
<path d="M783 609V580H754V609H783Z" fill="#A3D5FF"></path>
<path d="M754 609V580H725V609H754Z" fill="#A3D5FF"></path>
<path d="M725 609V580H696V609H725Z" fill="#A3D5FF"></path>
<path d="M725 317H754V346H725V317Z" fill="#A3D5FF"></path>
<path d="M696 346H725V375H696V346Z" fill="#A3D5FF"></path>
<path d="M377 58H406V87H377V58Z" fill="#A3D5FF"></path>
<path d="M522 87H551V116H522V87Z" fill="#A3D5FF"></path>
<path d="M551 58H580V87H551V58Z" fill="#A3D5FF"></path>
<path d="M609 116H638V145H609V116Z" fill="#A3D5FF"></path>
<path d="M638 87H667V116H638V87Z" fill="#A3D5FF"></path>
<path d="M377 29H406V58H377V29Z" fill="#A3D5FF"></path>
<path d="M87 522H116V551H87V522Z" fill="#A3D5FF"></path>
<path d="M145 754H174V783H145V754Z" fill="#A3D5FF"></path>
<path d="M174 725H203V754H174V725Z" fill="#A3D5FF"></path>
<path d="M203 696H232V725H203V696Z" fill="#A3D5FF"></path>
<path d="M261 754H290V783H261V754Z" fill="#A3D5FF"></path>
<path d="M87 551H116V580H87V551Z" fill="#A3D5FF"></path>
<path d="M319 609H348V638H319V609Z" fill="#003366"></path>
<path d="M377 464H406V493H377V464Z" fill="#003366"></path>
<path d="M377 435H406V464H377V435Z" fill="#003366"></path>
<path d="M377 406H406V435H377V406Z" fill="#003366"></path>
<path d="M377 377H406V406H377V377Z" fill="#003366"></path>
<path d="M406 348H435V377H406V348Z" fill="#003366"></path>
<path d="M406 319H435V348H406V319Z" fill="#003366"></path>
<path d="M406 290H435V319H406V290Z" fill="#003366"></path>
<path d="M348 580H377V609H348V580Z" fill="#003366"></path>
<path d="M348 551H377V580H348V551Z" fill="#003366"></path>
<path d="M348 522H377V551H348V522Z" fill="#003366"></path>
<path d="M348 493H377V522H348V493Z" fill="#003366"></path>
<path d="M203 580H232V609H203V580Z" fill="#0077FF"></path>
<path d="M203 551H232V580H203V551Z" fill="#0077FF"></path>
<path d="M348 725H377V754H348V725Z" fill="#1E90FF"></path>
<path d="M348 696H377V725H348V696Z" fill="#1E90FF"></path>
<path d="M348 667H377V696H348V667Z" fill="#1E90FF"></path>
<path d="M348 638H377V667H348V638Z" fill="#1E90FF"></path>
<path d="M377 638H406V667H377V638Z" fill="#1E90FF"></path>
<path d="M406 609H435V638H406V609Z" fill="#1E90FF"></path>
<path d="M435 580H464V609H435V580Z" fill="#1E90FF"></path>
<path d="M464 580H493V609H464V580Z" fill="#1E90FF"></path>
<path d="M348 609H377V638H348V609Z" fill="#1E90FF"></path>
<path d="M377 348H406V377H377V348Z" fill="#1E90FF"></path>
<path d="M377 319H406V348H377V319Z" fill="#1E90FF"></path>
<path d="M377 290H406V319H377V290Z" fill="#1E90FF"></path>
<path d="M203 319H232V348H203V319Z" fill="#1E90FF"></path>
<path d="M203 290H232V319H203V290Z" fill="#1E90FF"></path>
<path d="M174 290H203V319H174V290Z" fill="#1E90FF"></path>
<path d="M174 232H203V261H174V232Z" fill="#1E90FF"></path>
<path d="M261 261H290V290H261V261Z" fill="#1E90FF"></path>
<path d="M290 290H319V319H290V290Z" fill="#1E90FF"></path>
<path d="M348 232H377V261H348V232Z" fill="#1E90FF"></path>
<path d="M203 261H232V290H203V261Z" fill="#1E90FF"></path>
<path d="M377 261H406V290H377V261Z" fill="#1E90FF"></path>
<path d="M406 464H435V493H406V464Z" fill="#1E90FF"></path>
<path d="M435 464H464V493H435V464Z" fill="#1E90FF"></path>
<path d="M464 493H493V522H464V493Z" fill="#1E90FF"></path>
<path d="M406 435H435V464H406V435Z" fill="#1E90FF"></path>
<path d="M406 406H435V435H406V406Z" fill="#1E90FF"></path>
<path d="M406 377H435V406H406V377Z" fill="#1E90FF"></path>
<path d="M493 464H522V493H493V464Z" fill="#1E90FF"></path>
<path d="M493 493H522V522H493V493Z" fill="#1E90FF"></path>
<path d="M493 520H522V549H493V520Z" fill="#1E90FF"></path>
<path d="M493 549H522V578H493V549Z" fill="#1E90FF"></path>
<path d="M493 435H522V464H493V435Z" fill="#1E90FF"></path>
<path d="M493 406H522V435H493V406Z" fill="#1E90FF"></path>
<path d="M493 377H522V406H493V377Z" fill="#1E90FF"></path>
<path d="M435 377H464V406H435V377Z" fill="#1E90FF"></path>
<path d="M435 290H464V319H435V290Z" fill="#1E90FF"></path>
<path d="M435 261H464V290H435V261Z" fill="#1E90FF"></path>
<path d="M493 232H522V261H493V232Z" fill="#1E90FF"></path>
<path d="M493 203H522V232H493V203Z" fill="#1E90FF"></path>
<path d="M493 174H522V203H493V174Z" fill="#1E90FF"></path>
<path d="M522 174H551V203H522V174Z" fill="#1E90FF"></path>
<path d="M551 203H580V232H551V203Z" fill="#1E90FF"></path>
<path d="M581 232H610V261H581V232Z" fill="#1E90FF"></path>
<path d="M609 261H638V290H609V261Z" fill="#1E90FF"></path>
<path d="M580 290H609V319H580V290Z" fill="#1E90FF"></path>
<path d="M551 319H580V348H551V319Z" fill="#1E90FF"></path>
<path d="M522 348H551V377H522V348Z" fill="#1E90FF"></path>
<path d="M493 145H522V174H493V145Z" fill="#1E90FF"></path>
<path d="M464 261H493V290H464V261Z" fill="#1E90FF"></path>
<path d="M435 232H464V261H435V232Z" fill="#1E90FF"></path>
<path d="M435 203H464V232H435V203Z" fill="#1E90FF"></path>
<path d="M406 174H435V203H406V174Z" fill="#1E90FF"></path>
<path d="M406 145H435V174H406V145Z" fill="#1E90FF"></path>
<path d="M319 203H348V232H319V203Z" fill="#1E90FF"></path>
<path d="M319 174H348V203H319V174Z" fill="#1E90FF"></path>
<path d="M377 580H406V609H377V580Z" fill="#1E90FF"></path>
<path d="M377 551H406V580H377V551Z" fill="#1E90FF"></path>
<path d="M377 522H406V551H377V522Z" fill="#1E90FF"></path>
<path d="M377 493H406V522H377V493Z" fill="#1E90FF"></path>
<path d="M174 522H203V551H174V522Z" fill="#0077FF"></path>
<path d="M203 464H232V493H203V464Z" fill="#0077FF"></path>
<path d="M232 435H261V464H232V435Z" fill="#0077FF"></path>
<path d="M261 493H290V522H261V493Z" fill="#0077FF"></path>
<path d="M290 522H319V551H290V522Z" fill="#0077FF"></path>
<path d="M87 290H116V319H87V290Z" fill="#0077FF"></path>
<path d="M116 319H145V348H116V319Z" fill="#0077FF"></path>
<path d="M319 551H348V580H319V551Z" fill="#0077FF"></path>
<path d="M145 493H174V522H145V493Z" fill="#0077FF"></path>
<path d="M116 522H145V551H116V522Z" fill="#0077FF"></path>
</svg><style>@media (prefers-color-scheme: light) { :root { filter: none; } }
@media (prefers-color-scheme: dark) { :root { filter: none; } }
</style></svg>