<svg xmlns="http://www.w3.org/2000/svg" width="79" height="78" fill="none" xmlns:v="https://vecta.io/nano"><g opacity=".58"><path d="M45.861 19.263c1.089.079 2.678.012 3.809.004l7.005.008 2.127-.003 1.179-.011.033 2.404c1.464-.088 3.173.012 4.679-.032l.022 2.377 2.237-.037.101.024c.059.203.035 2.062.022 2.39.373-.005 2.051-.116 2.261.071.068.061.095.156.106.244.062.467-.011 1.537-.011 2.069l2.392-.035-.009 4.791c.683-.056 1.645-.025 2.347-.017l.009 7.863.009 2.616.031 1.384-2.362-.004-.048.051.013.955.015 3.709c-.373.006-2.155-.077-2.366.057l.012 3.083.013 1.626c-.702-.05-1.709-.039-2.422-.031-.045.543.025 1.819.04 2.405l-4.248-.007c-.157.002-.358-.008-.51.012l.036 2.371-2.493.005c-2.442-.002-4.924.024-7.361-.008l-4.07.007h-2.558l-2.423-.006-.035-2.393c-.556.053-1.69.006-2.318.021l-.036-2.419c-.286.044-1.962.017-2.338.019l.011-2.354c-.758.002-1.621-.015-2.371.028l-.002-2.339c-.169-.107-2.048-.05-2.373-.045l.003-7.128c-.614.069-1.646-.005-2.358.039l-.001-4.782.011-2.372c.388-.043 1.855-.02 2.281.011.078-.134.046-.279.045-.457l.019-4.466.025-2.178 2.36.018.002-2.41 2.33-.01c-.031-.4-.088-2.035.062-2.327.449-.2 1.962.069 2.342-.071-.077-.429-.07-1.89-.013-2.336l2.635-.022 2.068.021c-.04-.63.004-1.735.032-2.381z" fill="#cbbeff"/><path d="M45.861 19.263c1.088.079 2.678.012 3.809.004l7.005.008 2.127-.003 1.179-.011.033 2.404c1.464-.088 3.173.012 4.679-.032l.022 2.377 2.237-.037.101.024c.059.203.035 2.062.022 2.39.373-.005 2.051-.116 2.261.071.068.061.095.156.106.244.062.467-.011 1.537-.011 2.069l2.392-.035-.009 4.791c.683-.056 1.645-.025 2.347-.017l.009 7.863.009 2.616.031 1.384-2.362-.004-.048.051.013.955.015 3.709c-.373.006-2.155-.077-2.366.057l-.039.007-.003-.05c.045-.277.015-1.975.013-2.353l-.02-.024c-.748-.017-1.594.007-2.357.004-.056-.811-.024-1.563-.026-2.371l.068-5.349-.028-4.391.042-2.085c.207-.135 1.841-.085 2.223-.086v-6.96c-.433-.047-.934-.026-1.371-.03-.271-.003-.627.05-.881-.01-.057-.053-.101-.078-.099-.169l-.011-2.203c-1.676.004-3.346.088-5.025-.021-.578-.038-1.196.041-1.778.021-.819.008-1.67-.019-2.485.016-.09-.099-.043-.102-.168-.107-.709-.026-1.501.083-2.2-.023-.067-.548-.029-1.709-.022-2.311l-7.127.005.002 2.356c-1.574-.006-3.15-.016-4.724.001l.009 2.431-2.279-.005.008 2.013c-.17-.237-.029-1.783-.137-1.989.023-.03.1-.123.1-.162l.028-2.16a.22.22 0 0 0-.039-.153c-.077-.429-.07-1.89-.013-2.336l2.635-.022 2.068.021c-.04-.63.004-1.735.032-2.381z" fill="#bbaff6"/><path d="M69.443 33.136c.01.12.002.257.072.343.389-.009 1.972-.065 2.3.048.683-.056 1.645-.025 2.347-.017l.009 7.863.009 2.616.031 1.384-2.362-.004-.048.05.013.955.015 3.709c-.373.007-2.155-.077-2.366.057l-.039.007-.003-.05c.045-.277.015-1.975.013-2.353l-.02-.024.021-13.525.007-1.059z" fill="url(#A)"/><path d="M71.815 33.527c.683-.056 1.645-.025 2.347-.017l.009 7.863.009 2.616.031 1.384-2.362-.004-.048.05-.017-.027c.04-.257.017-.873.015-1.158l-.011-2.175.032-4.918-.006-3.614z" fill="#c9b5ea"/><path d="M71.773 47.701c-.001-.319-.021-1.063.041-1.327l.015 3.709c-.373.006-2.155-.077-2.366.057l-.039.007-.003-.05c.045-.277.015-1.975.013-2.353.212-.057 1.883.001 2.338-.044z" fill="#b4d1f3"/><g fill="#c9b5ea"><path d="M69.432 28.772l2.392-.035-.009 4.791c-.327-.112-1.91-.057-2.3-.048-.07-.086-.062-.224-.072-.343l-.012-4.364zM34 35.426c.109.112.086.106.086.308.114.132 2.047.207 2.226.067.053-.149.049-.21.06-.371l-.032 5.032.03 2.036.023 7.608-.002.054c-.169-.107-2.048-.05-2.373-.045l.003-7.128c-.614.069-1.646-.005-2.358.039l-.001-4.782.011-2.372c.388-.043 1.855-.02 2.281.011.078-.134.046-.279.045-.457z"/></g><path d="M31.663 38.245l1.096.006 1.258.007-.01 3.223.014 1.506c-.614.069-1.646-.005-2.358.039l-.001-4.782z" fill="#9e9bf0"/><g fill="#90b5f0"><path d="M31.675 35.873c.388-.043 1.855-.02 2.281.011.091.091.072.16.071.323l-.004 2.038c-.415-.002-.85-.012-1.263.007-.363.002-.733-.004-1.096-.006l.011-2.372zM46.13 57.209l3.647.008 7.89-.019.141.002 3.655.009.693.009c.093.016.102.023.193.009l.036 2.371-2.493.005c-2.441-.002-4.923.024-7.361-.008l-4.07.007h-2.558l-2.423-.006-.035-2.393.024-.007 2.371.006.069-.017.221.023z"/></g><path d="M57.809 57.2l3.655.009.693.009c.093.016.102.023.193.009l.036 2.371-2.493.005c-2.442-.002-4.924.024-7.361-.008.126-.071 4.649-.06 5.133-.06l.003-2.338.141.002z" fill="#b4d1f3"/><path d="M61.463 57.21l.693.009c.093.016.102.023.193.009l.036 2.371-2.493.005.087-.08c.056-.273.038-1.919.039-2.293l1.445-.022z" fill="#90b5f0"/><path d="M43.47 57.197l2.371.006.069-.017.221.023c.551.062 1.53.022 2.109.027-.041.49-.044 1.764-.013 2.26.082.087.101.069.235.107h-2.558l-2.423-.006-.035-2.393.024-.007z" fill="#c9b5ea"/><path d="M43.47 57.197l2.371.006c-.005.376-.098 2.221.055 2.392l-2.415.001-.035-2.393.024-.007z" fill="#ad89cc"/><path d="M67.058 47.724l2.357-.004.02.024-.013 2.353.003.05.039-.007.012 3.083.013 1.626c-.702-.05-1.709-.039-2.422-.031-.045.543.025 1.819.04 2.405l-4.248-.007c-.157.002-.358-.008-.51.012-.091.013-.1.006-.193-.009.1-.016.066-.005.153-.053.118-.262.075-1.953.068-2.331l2.35-.03c-.018-.153-.012-.473-.078-.57-.047-.494.037-1.322-.037-1.707l-.236-.017c.197-.069.182.025.308-.092.042-.627.009-1.685-.011-2.332-.186-.015-.624.016-.764-.034l.029-.027c.162.031.592.029.732-.032l.036-.111.028.112c.02-.072.005-1.958.01-2.223l2.313-.047z" fill="url(#B)"/><path d="M64.728 52.478l2.342-.019.006.094-.01 2.265c-.045.543.025 1.819.04 2.405l-4.248-.007c-.157.001-.358-.008-.51.012-.091.013-.1.006-.193-.01.1-.016.066-.005.153-.053.118-.262.075-1.953.068-2.331l2.35-.03c.042-.239.004-1.99.001-2.326z" fill="url(#C)"/><path d="M69.425 50.148l.039-.007.012 3.083.013 1.626c-.702-.05-1.709-.039-2.422-.031.052-.491.014-1.725.01-2.265l.028-.045c.169-.096 2.031-.061 2.317-.038l.003-2.322z" fill="#90b5f0"/><path d="M67.086 50.088l2.336.01.003.05-.003 2.322c-.286-.023-2.148-.058-2.317.038l-.028.045-.006-.094c.061-.575-.006-1.713.015-2.371z" fill="#b4d1f3"/><path d="M67.058 47.724l2.357-.004.02.024-.013 2.353c-.511-.059-1.757-.016-2.336-.01.072-.556.032-1.795-.028-2.364z" fill="#71d5f7"/><path d="M36.371 42.498c.073-.692-.032-1.808.004-2.532.015-.302-.028-.643.045-.94l.015 2.966.036 8.027h2.353v2.362h2.203l.019-6.959-.113-.064c.107-.011.059-.023.147.035.098.393.022 1.228.039 1.658l.011 5.386 2.319.033.022 2.357 2.453.023c-.056.262-.088 2.125-.016 2.336l-.069.017c-.771-.013-1.611.029-2.371-.006l-.024.007c-.556.053-1.69.006-2.318.021l-.036-2.419c-.285.044-1.962.017-2.338.019l.011-2.354c-.758.002-1.622-.015-2.371.028l-.002-2.339.002-.054-.023-7.608z" fill="#9e9bf0"/><g fill="#c9b5ea"><path d="M41.092 54.806l.023-.012c.315.079 1.935.037 2.359.032l-.005 2.371-.024.007c-.556.053-1.69.006-2.318.021l-.036-2.419zm-4.698-4.699l2.355-.001.016 2.366c-.758.002-1.622-.015-2.371.028l-.002-2.339.002-.054z"/><path d="M38.765 52.471l2.352.007-.002 2.315-.023.012c-.286.044-1.962.017-2.338.019l.011-2.354z"/></g><path d="M34.019 30.96c.025.097.033.113.033.212.131.041.057.014.19.001a11.88 11.88 0 0 1 2.144.003l-.004 3.76-.01.495c-.011.161-.007.223-.06.371-.179.14-2.112.064-2.226-.067 0-.202.023-.195-.086-.308l.019-4.466z" fill="#b4d1f3"/><path d="M41.14 23.981a.22.22 0 0 1 .039.153l-.028 2.16c0 .039-.076.132-.1.162-.481.029-1.337.038-1.8-.057l.019-.029c.193-.035 1.514-.039 1.773-.036l-.013-2.212c-.281-.057-1.868-.038-2.205-.011l-.054 2.29c-.427.18-2.004-.098-2.24.149-.125.686-.021 2.768-.028 3.602l-.028 2.285c-.002.287-.032.649.011.922.225.269 1.86.027 2.289.081l-.013.041-.006 4.664c-.002.122.008.409-.019.516l-.047-3.962c-.013-.242.022-.944-.035-1.136l-2.184.015-.051 5.445c-.073.297-.03.639-.045.94l-.004 2.532c-.055-.382-.029-1.604-.03-2.036l.032-5.032c.011-.156.009-.336.01-.495l.004-3.76a11.88 11.88 0 0 0-2.144-.003c-.133.013-.058.04-.19-.001 0-.098-.009-.115-.033-.212l.025-2.178 2.36.018.002-2.41 2.33-.01c-.03-.4-.088-2.035.062-2.327.449-.2 1.962.069 2.342-.071z" fill="#90b5f0"/><path d="M64.65 54.234c.066.098.06.417.078.57l-2.35.03c.007.378.05 2.069-.068 2.331-.087.048-.053.037-.153.053-.187-.016-.495-.009-.693-.009-1.189-.043-2.447.026-3.655-.009.32-.089 1.685-.05 2.117-.056l.048-2.242c.342-.128 4.058-.159 4.651-.159l.026-.509z" fill="#71d5f7"/></g><defs><linearGradient id="A" x1="69.956" y1="33.466" x2="71.305" y2="47.66" gradientUnits="userSpaceOnUse"><stop stop-color="#e6bbee"/><stop offset="1" stop-color="#c9c8ed"/></linearGradient><linearGradient id="B" x1="66.052" y1="52.437" x2="65.679" y2="47.705" gradientUnits="userSpaceOnUse"><stop stop-color="#7af8f2"/><stop offset="1" stop-color="#ece1ff"/></linearGradient><linearGradient id="C" x1="67.317" y1="55.251" x2="62.497" y2="54.427" gradientUnits="userSpaceOnUse"><stop stop-color="#bbece9"/><stop offset="1" stop-color="#c0dafb"/></linearGradient></defs></svg>