<?xml version="1.0" encoding="utf-8" ?><svg xmlns="http://www.w3.org/2000/svg" xmlns:xlink="http://www.w3.org/1999/xlink" width="424" height="372" viewBox="0 0 424 372"><path d="M273.24 48.4557C277.051 49.0709 283.313 48.6144 287.428 48.6139C299.43 48.6123 311.485 48.3307 323.48 48.6823C323.529 53.2602 323.532 57.8386 323.488 62.4166C331.921 61.7446 341.981 62.5183 350.61 62.4064C350.637 66.9829 350.734 71.5677 350.666 76.1435C355.773 75.8051 361.084 76.0805 366.205 76.2153C366.14 85.3903 366.155 94.5656 366.252 103.74C371.287 103.382 376.448 103.737 381.502 103.648C381.781 114.322 381.544 125.063 381.535 135.744L381.525 186.27C376.362 186.199 371.195 186.325 366.031 186.288C366.513 190.822 365.646 195.511 366.298 200.016C361.375 200.212 355.473 200.484 350.605 199.97C350.821 206.069 350.893 212.384 350.517 218.468L335.002 218.467C335.386 226.035 335.085 233.758 335.091 241.342C329.938 241.449 324.618 241.638 319.481 241.296C320.056 245.796 319.442 250.565 319.672 255.12C314.606 255.338 309.278 255.265 304.21 255.049C304.114 259.657 303.987 264.336 304.237 268.94L293.655 268.874C291.949 268.912 290.262 268.97 288.562 268.779C288.766 273.407 288.656 278.071 288.544 282.7C283.388 282.578 278.212 282.686 273.051 282.618C273.433 287.174 273.025 291.895 273.173 296.484C267.978 296.475 262.737 296.604 257.549 296.371C257.987 300.841 257.61 305.615 257.536 310.118C252.366 309.919 247.163 310.364 242.001 310.058C242.539 314.628 242.018 319.382 242.256 323.992C237.09 323.862 231.778 324.258 226.646 323.822C226.783 328.383 226.246 333.101 226.692 337.629C216.369 337.777 206.035 337.699 195.711 337.698C195.776 333.145 195.435 328.54 195.723 323.994C192.938 323.893 190.126 323.829 187.34 323.897C185.654 323.939 183.836 324.192 182.169 324.038C181.664 323.992 181.051 323.854 180.677 323.482C179.5 322.308 180.022 312.662 179.993 310.213C174.902 310.071 169.808 310.055 164.716 310.164C164.731 305.608 164.407 301.069 164.702 296.51C159.562 296.445 154.421 296.43 149.28 296.467C149.282 291.958 148.886 287.277 149.233 282.789C144.035 282.72 138.836 282.701 133.638 282.732C133.69 278.251 133.081 273.429 133.694 269.002C128.562 268.851 123.366 268.723 118.236 268.939C117.948 264.325 118.418 259.66 117.935 255.057C116.319 255.295 114.512 255.096 112.875 255.081C109.451 255.05 106.014 255.024 102.596 255.252C102.554 250.703 102.219 245.889 102.706 241.378C97.589 241.675 92.2986 241.367 87.1591 241.398C87.2982 238.427 87.1174 235.393 87.1259 232.412C87.1392 227.798 87.3156 223.121 87.038 218.517C81.8923 218.455 76.7461 218.443 71.6001 218.48C71.7588 212.48 71.0089 206.207 71.673 200.248C66.5276 199.94 61.3668 200.073 56.2158 200.133C56.1083 195.519 56.0342 190.904 55.9934 186.289C51.966 186.74 44.8287 186.27 40.5184 186.244C40.8531 183.722 40.5918 180.904 40.5851 178.342L40.5736 162.281L40.6064 103.682C45.7713 103.614 50.9992 103.401 56.157 103.618C55.6471 94.4772 56.2243 85.1855 56.0718 76.0191C61.2787 76.5045 66.5741 75.6701 71.7932 76.2077C71.1949 71.6619 71.9842 67.0164 71.5713 62.4619L88.8775 62.3944C92.152 62.3853 95.6009 62.1612 98.8511 62.5272C98.667 60.0339 98.2769 50.5008 98.9843 48.605C115.663 48.4951 132.342 48.4721 149.021 48.536C149.2 53.1061 149.442 57.8565 149.15 62.4179C155.106 62.2426 161.083 62.3236 167.041 62.3125C171.333 62.3045 175.745 62.0931 180.018 62.5041C179.961 67.0698 180.18 71.6477 179.997 76.2108C185.197 76.0642 190.485 76.3587 195.66 76.0239C195.565 80.6581 195.683 85.2816 195.643 89.9139C205.978 90.0091 216.53 89.3851 226.833 90.0142C226.277 85.4745 226.748 80.7865 226.546 76.2119C231.776 76.1893 236.995 76.076 242.224 76.2625C241.96 71.6552 242.171 66.9451 242.175 62.3272C245.014 62.464 247.902 62.3207 250.746 62.3133C258.14 62.2942 265.713 62.1592 273.091 62.5004C273.398 57.857 273.234 53.1128 273.24 48.4557ZM299.824 112.11C304.879 111.882 309.986 112.011 315.047 112.004C315.241 117.586 315.06 123.177 315.215 128.76C318.936 128.591 337.996 128.127 340.454 128.83C340.006 125.711 340.218 122.345 340.221 119.189C340.219 113.967 340.244 108.744 340.295 103.521L324.848 103.485C324.945 97.9749 324.758 92.4466 324.733 86.9335L308.092 86.8291C305.454 86.8311 302.257 87.2045 299.69 86.7749C299.697 94.4538 298.931 104.85 299.824 112.11Z"/></svg>