<svg width="841" height="783" viewBox="0 0 841 783" fill="none" xmlns="http://www.w3.org/2000/svg">
<rect x="319" y="696" width="29" height="29" fill="#003366"/>
<rect x="348" y="725" width="29" height="29" fill="#003366"/>
<rect x="377" y="754" width="29" height="29" fill="#003366"/>
<rect x="319" y="667" width="29" height="29" fill="#003366"/>
<rect x="319" y="638" width="29" height="29" fill="#003366"/>
<rect x="319" y="609" width="29" height="29" fill="#003366"/>
<rect x="290" y="609" width="29" height="29" fill="#0077FF"/>
<rect x="261" y="609" width="29" height="29" fill="#0077FF"/>
<rect x="232" y="609" width="29" height="29" fill="#0077FF"/>
<rect x="203" y="609" width="29" height="29" fill="#0077FF"/>
<rect x="638" y="578" width="29" height="29" fill="#0077FF"/>
<rect x="667" y="607" width="29" height="29" fill="#0077FF"/>
<rect x="667" y="551" width="29" height="29" fill="#0077FF"/>
<rect x="609" y="549" width="29" height="29" fill="#0077FF"/>
<rect x="609" y="491" width="29" height="29" fill="#0077FF"/>
<rect x="638" y="433" width="29" height="29" fill="#0077FF"/>
<rect x="638" y="462" width="29" height="29" fill="#0077FF"/>
<rect x="638" y="404" width="29" height="29" fill="#0077FF"/>
<rect x="580" y="433" width="29" height="29" fill="#0077FF"/>
<rect x="580" y="462" width="29" height="29" fill="#0077FF"/>
<rect x="580" y="404" width="29" height="29" fill="#0077FF"/>
<rect x="551" y="375" width="29" height="29" fill="#0077FF"/>
<rect x="638" y="375" width="29" height="29" fill="#0077FF"/>
<rect x="667" y="346" width="29" height="29" fill="#0077FF"/>
<rect x="580" y="520" width="29" height="29" fill="#0077FF"/>
<rect x="551" y="520" width="29" height="29" fill="#0077FF"/>
<rect x="522" y="520" width="29" height="29" fill="#0077FF"/>
<rect x="232" y="319" width="29" height="29" fill="#0077FF"/>
<rect x="261" y="319" width="29" height="29" fill="#0077FF"/>
<rect x="319" y="290" width="29" height="29" fill="#0077FF"/>
<rect x="348" y="290" width="29" height="29" fill="#0077FF"/>
<rect x="290" y="348" width="29" height="29" fill="#0077FF"/>
<rect x="348" y="348" width="29" height="29" fill="#0077FF"/>
<rect x="203" y="319" width="29" height="29" fill="#0077FF"/>
<rect x="174" y="319" width="29" height="29" fill="#0077FF"/>
<rect x="319" y="377" width="29" height="29" fill="#0077FF"/>
<rect x="348" y="377" width="29" height="29" fill="#0077FF"/>
<rect x="290" y="377" width="29" height="29" fill="#0077FF"/>
<rect x="261" y="377" width="29" height="29" fill="#0077FF"/>
<rect x="145" y="319" width="29" height="29" fill="#0077FF"/>
<rect x="493" y="667" width="29" height="29" fill="#0077FF"/>
<rect x="464" y="667" width="29" height="29" fill="#0077FF"/>
<rect x="435" y="667" width="29" height="29" fill="#0077FF"/>
<rect x="406" y="667" width="29" height="29" fill="#0077FF"/>
<rect x="203" y="580" width="29" height="29" fill="#0077FF"/>
<rect x="174" y="638" width="29" height="29" fill="#0077FF"/>
<rect x="290" y="725" width="29" height="29" fill="#0077FF"/>
<rect x="377" y="725" width="29" height="29" fill="#0077FF"/>
<rect x="377" y="696" width="29" height="29" fill="#0077FF"/>
<rect x="377" y="667" width="29" height="29" fill="#0077FF"/>
<rect x="406" y="725" width="29" height="29" fill="#0077FF"/>
<rect x="406" y="754" width="29" height="29" fill="#0077FF"/>
<rect x="145" y="638" width="29" height="29" fill="#0077FF"/>
<rect x="116" y="638" width="29" height="29" fill="#A3D5FF"/>
<rect x="58" y="609" width="29" height="29" fill="#A3D5FF"/>
<rect x="87" y="609" width="29" height="29" fill="#A3D5FF"/>
<rect x="29" y="551" width="29" height="29" fill="#A3D5FF"/>
<rect x="58" y="551" width="29" height="29" fill="#A3D5FF"/>
<rect x="58" y="493" width="29" height="29" fill="#A3D5FF"/>
<rect x="29" y="464" width="29" height="29" fill="#A3D5FF"/>
<rect x="87" y="377" width="29" height="29" fill="#A3D5FF"/>
<rect x="116" y="406" width="29" height="29" fill="#A3D5FF"/>
<rect x="116" y="435" width="29" height="29" fill="#A3D5FF"/>
<rect x="493" y="87" width="29" height="29" fill="#A3D5FF"/>
<rect x="551" y="116" width="29" height="29" fill="#A3D5FF"/>
<rect x="580" y="116" width="29" height="29" fill="#A3D5FF"/>
<rect y="435" width="29" height="29" fill="#A3D5FF"/>
<rect y="406" width="29" height="29" fill="#A3D5FF"/>
<rect y="377" width="29" height="29" fill="#A3D5FF"/>
<rect y="348" width="29" height="29" fill="#A3D5FF"/>
<rect x="87" y="174" width="29" height="29" fill="#A3D5FF"/>
<rect x="87" y="145" width="29" height="29" fill="#A3D5FF"/>
<rect y="174" width="29" height="29" fill="#A3D5FF"/>
<rect x="29" y="203" width="29" height="29" fill="#A3D5FF"/>
<rect x="58" y="232" width="29" height="29" fill="#A3D5FF"/>
<rect x="87" y="116" width="29" height="29" fill="#A3D5FF"/>
<rect x="377" y="87" width="29" height="29" fill="#A3D5FF"/>
<rect x="377" y="58" width="29" height="29" fill="#A3D5FF"/>
<rect x="667" y="665" width="29" height="29" fill="#A3D5FF"/>
<rect x="667" y="636" width="29" height="29" fill="#A3D5FF"/>
<rect x="551" y="696" width="29" height="29" transform="rotate(90 551 696)" fill="#A3D5FF"/>
<rect x="580" y="696" width="29" height="29" transform="rotate(90 580 696)" fill="#A3D5FF"/>
<rect x="609" y="696" width="29" height="29" transform="rotate(90 609 696)" fill="#A3D5FF"/>
<rect x="580" y="609" width="29" height="29" transform="rotate(90 580 609)" fill="#A3D5FF"/>
<rect x="551" y="638" width="29" height="29" transform="rotate(90 551 638)" fill="#A3D5FF"/>
<rect x="319" y="116" width="29" height="29" fill="#A3D5FF"/>
<rect x="319" y="116" width="29" height="29" fill="#A3D5FF"/>
<rect x="261" y="116" width="29" height="29" fill="#A3D5FF"/>
<rect x="290" y="145" width="29" height="29" fill="#A3D5FF"/>
<rect x="203" y="58" width="29" height="29" fill="#A3D5FF"/>
<rect x="174" y="29" width="29" height="29" fill="#A3D5FF"/>
<rect x="232" y="87" width="29" height="29" fill="#A3D5FF"/>
<rect width="29" height="29" transform="matrix(-1 0 0 1 174 174)" fill="#A3D5FF"/>
<rect width="29" height="29" transform="matrix(-1 0 0 1 203 145)" fill="#A3D5FF"/>
<rect width="29" height="29" transform="matrix(-1 0 0 1 145 203)" fill="#A3D5FF"/>
<rect width="29" height="29" transform="matrix(-1 0 0 1 174 232)" fill="#A3D5FF"/>
<rect width="29" height="29" transform="matrix(-1 0 0 1 783 259)" fill="#A3D5FF"/>
<rect width="29" height="29" transform="matrix(-1 0 0 1 783 230)" fill="#A3D5FF"/>
<rect width="29" height="29" transform="matrix(-1 0 0 1 783 201)" fill="#A3D5FF"/>
<rect width="29" height="29" transform="matrix(-1 0 0 1 783 435)" fill="#A3D5FF"/>
<rect width="29" height="29" transform="matrix(-1 0 0 1 783 406)" fill="#A3D5FF"/>
<rect width="29" height="29" transform="matrix(-1 0 0 1 783 377)" fill="#A3D5FF"/>
<rect width="29" height="29" transform="matrix(-1 0 0 1 696 174)" fill="#A3D5FF"/>
<rect width="29" height="29" transform="matrix(-1 0 0 1 667 203)" fill="#A3D5FF"/>
<rect width="29" height="29" transform="matrix(-1 0 0 1 696 145)" fill="#A3D5FF"/>
<rect width="29" height="29" transform="matrix(-1 0 0 1 725 116)" fill="#A3D5FF"/>
<rect width="29" height="29" transform="matrix(-1 0 0 1 696 288)" fill="#A3D5FF"/>
<rect width="29" height="29" transform="matrix(-1 0 0 1 696 259)" fill="#A3D5FF"/>
<rect width="29" height="29" transform="matrix(4.37114e-08 -1 -1 -4.37114e-08 754 377)" fill="#A3D5FF"/>
<rect width="29" height="29" transform="matrix(4.37114e-08 -1 -1 -4.37114e-08 783 377)" fill="#A3D5FF"/>
<rect width="29" height="29" transform="matrix(4.37114e-08 -1 -1 -4.37114e-08 812 377)" fill="#A3D5FF"/>
<rect width="29" height="29" transform="matrix(4.37114e-08 -1 -1 -4.37114e-08 841 348)" fill="#A3D5FF"/>
<rect width="29" height="29" transform="matrix(4.37114e-08 -1 -1 -4.37114e-08 812 493)" fill="#A3D5FF"/>
<rect width="29" height="29" transform="matrix(4.37114e-08 -1 -1 -4.37114e-08 812 551)" fill="#A3D5FF"/>
<rect width="29" height="29" transform="matrix(4.37114e-08 -1 -1 -4.37114e-08 783 580)" fill="#A3D5FF"/>
<rect width="29" height="29" transform="matrix(4.37114e-08 -1 -1 -4.37114e-08 754 580)" fill="#A3D5FF"/>
<rect width="29" height="29" transform="matrix(4.37114e-08 -1 -1 -4.37114e-08 725 580)" fill="#A3D5FF"/>
<rect x="725" y="288" width="29" height="29" fill="#A3D5FF"/>
<rect x="696" y="317" width="29" height="29" fill="#A3D5FF"/>
<rect x="377" y="29" width="29" height="29" fill="#A3D5FF"/>
<rect x="522" y="58" width="29" height="29" fill="#A3D5FF"/>
<rect x="551" y="29" width="29" height="29" fill="#A3D5FF"/>
<rect x="609" y="87" width="29" height="29" fill="#A3D5FF"/>
<rect x="638" y="58" width="29" height="29" fill="#A3D5FF"/>
<rect x="377" width="29" height="29" fill="#A3D5FF"/>
<rect x="87" y="493" width="29" height="29" fill="#A3D5FF"/>
<rect x="145" y="725" width="29" height="29" fill="#A3D5FF"/>
<rect x="174" y="696" width="29" height="29" fill="#A3D5FF"/>
<rect x="203" y="667" width="29" height="29" fill="#A3D5FF"/>
<rect x="261" y="725" width="29" height="29" fill="#A3D5FF"/>
<rect x="87" y="522" width="29" height="29" fill="#A3D5FF"/>
<rect x="319" y="580" width="29" height="29" fill="#003366"/>
<rect x="377" y="435" width="29" height="29" fill="#003366"/>
<rect x="377" y="406" width="29" height="29" fill="#003366"/>
<rect x="377" y="377" width="29" height="29" fill="#003366"/>
<rect x="377" y="348" width="29" height="29" fill="#003366"/>
<rect x="406" y="319" width="29" height="29" fill="#003366"/>
<rect x="406" y="290" width="29" height="29" fill="#003366"/>
<rect x="406" y="261" width="29" height="29" fill="#003366"/>
<rect x="348" y="551" width="29" height="29" fill="#003366"/>
<rect x="348" y="522" width="29" height="29" fill="#003366"/>
<rect x="348" y="493" width="29" height="29" fill="#003366"/>
<rect x="348" y="464" width="29" height="29" fill="#003366"/>
<rect x="203" y="551" width="29" height="29" fill="#0077FF"/>
<rect x="203" y="522" width="29" height="29" fill="#0077FF"/>
<rect x="348" y="696" width="29" height="29" fill="#1E90FF"/>
<rect x="348" y="667" width="29" height="29" fill="#1E90FF"/>
<rect x="348" y="638" width="29" height="29" fill="#1E90FF"/>
<rect x="348" y="609" width="29" height="29" fill="#1E90FF"/>
<rect x="377" y="609" width="29" height="29" fill="#1E90FF"/>
<rect x="406" y="580" width="29" height="29" fill="#1E90FF"/>
<rect x="435" y="551" width="29" height="29" fill="#1E90FF"/>
<rect x="464" y="551" width="29" height="29" fill="#1E90FF"/>
<rect x="348" y="580" width="29" height="29" fill="#1E90FF"/>
<rect x="377" y="319" width="29" height="29" fill="#1E90FF"/>
<rect x="377" y="290" width="29" height="29" fill="#1E90FF"/>
<rect x="377" y="261" width="29" height="29" fill="#1E90FF"/>
<rect x="203" y="290" width="29" height="29" fill="#1E90FF"/>
<rect x="203" y="261" width="29" height="29" fill="#1E90FF"/>
<rect x="174" y="261" width="29" height="29" fill="#1E90FF"/>
<rect x="174" y="203" width="29" height="29" fill="#1E90FF"/>
<rect x="261" y="232" width="29" height="29" fill="#1E90FF"/>
<rect x="290" y="261" width="29" height="29" fill="#1E90FF"/>
<rect x="348" y="203" width="29" height="29" fill="#1E90FF"/>
<rect x="203" y="232" width="29" height="29" fill="#1E90FF"/>
<rect x="377" y="232" width="29" height="29" fill="#1E90FF"/>
<rect x="406" y="435" width="29" height="29" fill="#1E90FF"/>
<rect x="435" y="435" width="29" height="29" fill="#1E90FF"/>
<rect x="464" y="464" width="29" height="29" fill="#1E90FF"/>
<rect x="406" y="406" width="29" height="29" fill="#1E90FF"/>
<rect x="406" y="377" width="29" height="29" fill="#1E90FF"/>
<rect x="406" y="348" width="29" height="29" fill="#1E90FF"/>
<rect x="493" y="435" width="29" height="29" fill="#1E90FF"/>
<rect x="493" y="464" width="29" height="29" fill="#1E90FF"/>
<rect x="493" y="491" width="29" height="29" fill="#1E90FF"/>
<rect x="493" y="520" width="29" height="29" fill="#1E90FF"/>
<rect x="493" y="406" width="29" height="29" fill="#1E90FF"/>
<rect x="493" y="377" width="29" height="29" fill="#1E90FF"/>
<rect x="493" y="348" width="29" height="29" fill="#1E90FF"/>
<rect x="435" y="348" width="29" height="29" fill="#1E90FF"/>
<rect x="435" y="261" width="29" height="29" fill="#1E90FF"/>
<rect x="435" y="232" width="29" height="29" fill="#1E90FF"/>
<rect x="493" y="203" width="29" height="29" fill="#1E90FF"/>
<rect x="493" y="174" width="29" height="29" fill="#1E90FF"/>
<rect x="493" y="145" width="29" height="29" fill="#1E90FF"/>
<rect x="522" y="145" width="29" height="29" fill="#1E90FF"/>
<rect x="551" y="174" width="29" height="29" fill="#1E90FF"/>
<rect x="581" y="203" width="29" height="29" fill="#1E90FF"/>
<rect x="609" y="232" width="29" height="29" fill="#1E90FF"/>
<rect x="580" y="261" width="29" height="29" fill="#1E90FF"/>
<rect x="551" y="290" width="29" height="29" fill="#1E90FF"/>
<rect x="522" y="319" width="29" height="29" fill="#1E90FF"/>
<rect x="493" y="116" width="29" height="29" fill="#1E90FF"/>
<rect x="464" y="232" width="29" height="29" fill="#1E90FF"/>
<rect x="435" y="203" width="29" height="29" fill="#1E90FF"/>
<rect x="435" y="174" width="29" height="29" fill="#1E90FF"/>
<rect x="406" y="145" width="29" height="29" fill="#1E90FF"/>
<rect x="406" y="116" width="29" height="29" fill="#1E90FF"/>
<rect x="319" y="174" width="29" height="29" fill="#1E90FF"/>
<rect x="319" y="145" width="29" height="29" fill="#1E90FF"/>
<rect x="377" y="551" width="29" height="29" fill="#1E90FF"/>
<rect x="377" y="522" width="29" height="29" fill="#1E90FF"/>
<rect x="377" y="493" width="29" height="29" fill="#1E90FF"/>
<rect x="377" y="464" width="29" height="29" fill="#1E90FF"/>
<rect x="174" y="493" width="29" height="29" fill="#0077FF"/>
<rect x="203" y="435" width="29" height="29" fill="#0077FF"/>
<rect x="232" y="406" width="29" height="29" fill="#0077FF"/>
<rect x="261" y="464" width="29" height="29" fill="#0077FF"/>
<rect x="290" y="493" width="29" height="29" fill="#0077FF"/>
<rect x="87" y="261" width="29" height="29" fill="#0077FF"/>
<rect x="116" y="290" width="29" height="29" fill="#0077FF"/>
<rect x="319" y="522" width="29" height="29" fill="#0077FF"/>
<rect x="145" y="464" width="29" height="29" fill="#0077FF"/>
<rect x="116" y="493" width="29" height="29" fill="#0077FF"/>
</svg>
